<?xml version="1.0" encoding="UTF-8" standalone="no"?> <svg xmlns="http://www.w3.org/2000/svg" xmlns:xlink="http://www.w3.org/1999/xlink" viewBox="0 0 64 64"><defs><style>.cls-1{fill:url(#linear-gradient);}.cls-2{fill:url(#linear-gradient-2);}.cls-3{fill:url(#linear-gradient-3);}.cls-4{fill:url(#linear-gradient-4);}.cls-5{fill:url(#linear-gradient-5);}.cls-6{fill:url(#linear-gradient-6);}.cls-7{fill:url(#linear-gradient-7);}.cls-8{fill:url(#linear-gradient-8);}.cls-9{fill:url(#linear-gradient-9);}.cls-10{fill:url(#linear-gradient-10);}.cls-11{fill:url(#linear-gradient-11);}.cls-12{fill:url(#linear-gradient-12);}</style><linearGradient id="linear-gradient" x1="3" y1="48.96" x2="61" y2="48.96" gradientUnits="userSpaceOnUse"><stop offset="0" stop-color="#17a6d7"/><stop offset="1" stop-color="#9d31fe"/></linearGradient><linearGradient id="linear-gradient-2" x1="11.02" y1="44.68" x2="57.93" y2="44.68" xlink:href="#linear-gradient"/><linearGradient id="linear-gradient-3" x1="11.02" y1="48.96" x2="57.93" y2="48.96" xlink:href="#linear-gradient"/><linearGradient id="linear-gradient-4" x1="11.02" y1="53.25" x2="57.93" y2="53.25" xlink:href="#linear-gradient"/><linearGradient id="linear-gradient-5" x1="24.11" y1="22.94" x2="39.87" y2="22.94" xlink:href="#linear-gradient"/><linearGradient id="linear-gradient-6" x1="31" y1="6.21" x2="33" y2="6.21" xlink:href="#linear-gradient"/><linearGradient id="linear-gradient-7" x1="39.05" y1="9.99" x2="43.22" y2="9.99" xlink:href="#linear-gradient"/><linearGradient id="linear-gradient-8" x1="42.39" y1="19.12" x2="47.44" y2="19.12" xlink:href="#linear-gradient"/><linearGradient id="linear-gradient-9" x1="39.04" y1="28.26" x2="43.22" y2="28.26" xlink:href="#linear-gradient"/><linearGradient id="linear-gradient-10" x1="20.79" y1="28.25" x2="24.96" y2="28.25" xlink:href="#linear-gradient"/><linearGradient id="linear-gradient-11" x1="16.58" y1="19.12" x2="21.6" y2="19.12" xlink:href="#linear-gradient"/><linearGradient id="linear-gradient-12" x1="20.78" y1="9.99" x2="24.96" y2="9.99" xlink:href="#linear-gradient"/></defs><g id="Layer_31" data-name="Layer 31"><path class="cls-1" d="M61,37.93a1,1,0,0,0-1-1H9.35C5.85,36.93,3,39.5,3,42.67V55.26C3,58.42,5.85,61,9.35,61H60a1,1,0,0,0,1-1V57.27a1,1,0,0,0-1-1H9.35c-.73,0-1.35-.46-1.35-1V42.67c0-.55.62-1,1.35-1H60a1,1,0,0,0,1-1ZM9.35,39.66a3.2,3.2,0,0,0-3.35,3V55.26a3.2,3.2,0,0,0,3.35,3H59V59H9.35C7,59,5,57.32,5,55.26V42.67c0-2.06,2-3.74,4.35-3.74H59v.73Z"/><path class="cls-2" d="M56.94,43.68H12a1,1,0,0,0,0,2H56.94A1,1,0,0,0,56.94,43.68Z"/><path class="cls-3" d="M56.94,48H12a1,1,0,0,0,0,2H56.94A1,1,0,0,0,56.94,48Z"/><path class="cls-4" d="M56.94,52.25H12a1,1,0,0,0,0,2H56.94A1,1,0,0,0,56.94,52.25Z"/><path class="cls-5" d="M26,23.8a8.46,8.46,0,0,1,2,5.69v1.93A3.61,3.61,0,0,0,31.59,35,3.76,3.76,0,0,0,36,31.42c-.12-2.83.09-5.35,2.12-7.76C41.79,19.34,39.36,12.07,33.7,11,26.4,9.39,21.14,18.12,26,23.8Zm8,7.62A1.61,1.61,0,0,1,32.41,33h-.82A1.61,1.61,0,0,1,30,31.42v-.93h4Zm-5.7-17.28c3.13-2.7,8.57-.92,9.41,3.16a5.94,5.94,0,0,1-1.14,5.1A11,11,0,0,0,34,28.49H33V23a3.43,3.43,0,0,0,2.44-3.28,1,1,0,0,0-2,0,1.44,1.44,0,0,1-2.88,0,1,1,0,0,0-2,0A3.43,3.43,0,0,0,31,23v5.48H30a10.44,10.44,0,0,0-2.45-6A5.9,5.9,0,0,1,28.31,14.14Z"/><path class="cls-6" d="M32,8.73a1,1,0,0,0,1-1V4.68a1,1,0,0,0-2,0V7.73A1,1,0,0,0,32,8.73Z"/><path class="cls-7" d="M40.05,12.07a1,1,0,0,0,.71-.29l2.16-2.16A1,1,0,0,0,41.5,8.2l-2.16,2.16A1,1,0,0,0,40.05,12.07Z"/><path class="cls-8" d="M42.39,19.12a1,1,0,0,0,1,1h3a1,1,0,0,0,0-2h-3A1,1,0,0,0,42.39,19.12Z"/><path class="cls-9" d="M41.5,30a1,1,0,0,0,1.42-1.42l-2.16-2.15a1,1,0,0,0-1.42,0c-.91,1,.51,1.83,1.08,2.49h0Z"/><path class="cls-10" d="M23.24,26.47l-2.16,2.15a1,1,0,0,0,.71,1.71A1,1,0,0,0,22.5,30l2.16-2.16A1,1,0,0,0,23.24,26.47Z"/><path class="cls-11" d="M17.56,20.12h3.05a1,1,0,0,0,0-2H17.56A1,1,0,0,0,17.56,20.12Z"/><path class="cls-12" d="M23.24,11.78a1,1,0,0,0,1.42-1.42L23.58,9.28h0L22.5,8.2a1,1,0,0,0-1.42,1.42Z"/></g></svg>