<?xml version="1.0" encoding="UTF-8" standalone="no"?> <svg xmlns="http://www.w3.org/2000/svg" xmlns:xlink="http://www.w3.org/1999/xlink" viewBox="0 0 64 64"><defs><style>.cls-1{fill:url(#linear-gradient);}.cls-2{fill:url(#linear-gradient-2);}.cls-3{fill:url(#linear-gradient-3);}</style><linearGradient id="linear-gradient" x1="38.62" y1="32" x2="53.5" y2="32" gradientUnits="userSpaceOnUse"><stop offset="0" stop-color="#19dd33"/><stop offset="0.43" stop-color="#0fa922"/><stop offset="0.8" stop-color="#088215"/><stop offset="1" stop-color="#057310"/></linearGradient><linearGradient id="linear-gradient-2" x1="10.5" y1="32" x2="25.37" y2="32" xlink:href="#linear-gradient"/><linearGradient id="linear-gradient-3" x1="28.58" y1="32" x2="35.42" y2="32" xlink:href="#linear-gradient"/></defs><g id="Layer_58" data-name="Layer 58"><path class="cls-1" d="M53.06,30.94,41.19,19.07a1.5,1.5,0,0,0-2.12,2.12L49.88,32,39.07,42.81a1.51,1.51,0,0,0,1.06,2.56,1.48,1.48,0,0,0,1.06-.44L53.06,33.06A1.49,1.49,0,0,0,53.06,30.94Z"/><path class="cls-2" d="M24.93,19.07a1.49,1.49,0,0,0-2.12,0L10.94,30.94a1.49,1.49,0,0,0,0,2.12L22.81,44.93a1.48,1.48,0,0,0,1.06.44,1.51,1.51,0,0,0,1.06-2.56L14.12,32,24.93,21.19A1.49,1.49,0,0,0,24.93,19.07Z"/><path class="cls-3" d="M34.1,15a1.5,1.5,0,0,0-1.67,1.3L28.6,47.34a1.5,1.5,0,0,0,3,.37l3.83-31A1.49,1.49,0,0,0,34.1,15Z"/></g></svg>